# xmcd
#
# Track frame offsets: 
#        150
#        20842
#        37912
#        61030
#        82972
#        103532
#        125128
#        143879
#        167522
#        189998
#        209706
#        236193
#
# Disc length: 3429 seconds
#
# Revision: 0
# Processed by: cddbd v1.5.2PL0 Copyright (c) Steve Scherf et al.
# Submitted via: ExactAudioCopyFreeDBPlugin 1.0
#
DISCID=a40d630c
DTITLE=Suara - キズナ
DYEAR=2009
DGENRE=Anime
TTITLE0=adamant faith
TTITLE1=Free and Dream
TTITLE2=彼女の背中
TTITLE3=舞い落ちる雪のように
TTITLE4=TOKYO-days
TTITLE5=また会えるその日まで
TTITLE6=フレンズ
TTITLE7=Crystal Tears
TTITLE8=春夏秋冬
TTITLE9=花詞
TTITLE10=うつせみ
TTITLE11=天使がみる夢
EXTD=YEAR: 2009
EXTT0=
EXTT1=
EXTT2=
EXTT3=
EXTT4=
EXTT5=
EXTT6=
EXTT7=
EXTT8=
EXTT9=
EXTT10=
EXTT11=
PLAYORDER=
